<svg xmlns="http://www.w3.org/2000/svg" viewBox="0 0 960 520" font-family="Segoe UI, system-ui, sans-serif">
  <defs>
    <linearGradient id="bg" x1="0" y1="0" x2="1" y2="1">
      <stop offset="0%" stop-color="#f0f9ff"/>
      <stop offset="100%" stop-color="#f8fafc"/>
    </linearGradient>
    <marker id="arrow" markerWidth="8" markerHeight="8" refX="7" refY="4" orient="auto">
      <path d="M0,0 L8,4 L0,8 Z" fill="#64748b"/>
    </marker>
    <filter id="shadow" x="-4%" y="-4%" width="108%" height="108%">
      <feDropShadow dx="0" dy="2" stdDeviation="3" flood-color="#0f172a" flood-opacity="0.08"/>
    </filter>
  </defs>
  <rect width="960" height="520" fill="url(#bg)" rx="16"/>
  <text x="480" y="38" text-anchor="middle" font-size="20" font-weight="700" fill="#0f172a">Ng°Ýi důng &amp; th» th° viÇn</text>
  <text x="480" y="58" text-anchor="middle" font-size="12" fill="#64748b">faculties · departments · users · periods · library_cards · loan_policies</text>

  <!-- faculties -->
  <g filter="url(#shadow)">
    <rect x="40" y="90" width="150" height="88" rx="8" fill="#fff" stroke="#7c3aed" stroke-width="2"/>
    <rect x="40" y="90" width="150" height="26" rx="8" fill="#7c3aed"/>
    <rect x="40" y="108" width="150" height="8" fill="#7c3aed"/>
    <text x="115" y="108" text-anchor="middle" font-size="12" font-weight="700" fill="#fff">faculties</text>
    <text x="52" y="132" font-size="10" fill="#334155">id PK</text>
    <text x="52" y="148" font-size="10" fill="#334155">code, name</text>
    <text x="52" y="164" font-size="10" fill="#334155">is_active</text>
  </g>

  <!-- departments -->
  <g filter="url(#shadow)">
    <rect x="230" y="90" width="150" height="88" rx="8" fill="#fff" stroke="#7c3aed" stroke-width="2"/>
    <rect x="230" y="90" width="150" height="26" rx="8" fill="#7c3aed"/>
    <rect x="230" y="108" width="150" height="8" fill="#7c3aed"/>
    <text x="305" y="108" text-anchor="middle" font-size="12" font-weight="700" fill="#fff">departments</text>
    <text x="242" y="132" font-size="10" fill="#334155">id PK</text>
    <text x="242" y="148" font-size="10" fill="#334155">faculty_id FK</text>
    <text x="242" y="164" font-size="10" fill="#334155">name</text>
  </g>

  <!-- users -->
  <g filter="url(#shadow)">
    <rect x="420" y="80" width="180" height="108" rx="8" fill="#fff" stroke="#2563eb" stroke-width="2"/>
    <rect x="420" y="80" width="180" height="26" rx="8" fill="#2563eb"/>
    <rect x="420" y="98" width="180" height="8" fill="#2563eb"/>
    <text x="510" y="98" text-anchor="middle" font-size="12" font-weight="700" fill="#fff">users</text>
    <text x="432" y="122" font-size="10" fill="#334155">id PK</text>
    <text x="432" y="138" font-size="10" fill="#334155">email, user_type</text>
    <text x="432" y="154" font-size="10" fill="#334155">faculty_id, department_id</text>
    <text x="432" y="170" font-size="10" fill="#334155">password, status</text>
  </g>

  <!-- periods -->
  <g filter="url(#shadow)">
    <rect x="40" y="230" width="150" height="88" rx="8" fill="#fff" stroke="#0891b2" stroke-width="2"/>
    <rect x="40" y="230" width="150" height="26" rx="8" fill="#0891b2"/>
    <rect x="40" y="248" width="150" height="8" fill="#0891b2"/>
    <text x="115" y="248" text-anchor="middle" font-size="12" font-weight="700" fill="#fff">periods</text>
    <text x="52" y="272" font-size="10" fill="#334155">id PK</text>
    <text x="52" y="288" font-size="10" fill="#334155">name, start_date</text>
    <text x="52" y="304" font-size="10" fill="#334155">end_date</text>
  </g>

  <!-- loan_policies -->
  <g filter="url(#shadow)">
    <rect x="230" y="230" width="170" height="100" rx="8" fill="#fff" stroke="#0891b2" stroke-width="2"/>
    <rect x="230" y="230" width="170" height="26" rx="8" fill="#0891b2"/>
    <rect x="230" y="248" width="170" height="8" fill="#0891b2"/>
    <text x="315" y="248" text-anchor="middle" font-size="11" font-weight="700" fill="#fff">loan_policies</text>
    <text x="242" y="272" font-size="10" fill="#334155">id PK</text>
    <text x="242" y="288" font-size="10" fill="#334155">holder_type</text>
    <text x="242" y="304" font-size="10" fill="#334155">max_books, loan_days</text>
    <text x="242" y="320" font-size="10" fill="#334155">fine_per_day_vnd</text>
  </g>

  <!-- library_cards -->
  <g filter="url(#shadow)">
    <rect x="640" y="200" width="200" height="130" rx="8" fill="#fff" stroke="#059669" stroke-width="2"/>
    <rect x="640" y="200" width="200" height="26" rx="8" fill="#059669"/>
    <rect x="640" y="218" width="200" height="8" fill="#059669"/>
    <text x="740" y="218" text-anchor="middle" font-size="12" font-weight="700" fill="#fff">library_cards</text>
    <text x="652" y="242" font-size="10" fill="#334155">id PK</text>
    <text x="652" y="258" font-size="10" fill="#334155">user_id FK</text>
    <text x="652" y="274" font-size="10" fill="#334155">card_number, holder_type</text>
    <text x="652" y="290" font-size="10" fill="#334155">workflow_status</text>
    <text x="652" y="306" font-size="10" fill="#334155">expiry_date, period_id</text>
  </g>

  <!-- Relations -->
  <path d="M190 134 H230" stroke="#64748b" stroke-width="1.5" marker-end="url(#arrow)"/>
  <text x="210" y="126" text-anchor="middle" font-size="9" fill="#64748b">1:N</text>

  <path d="M380 134 H420" stroke="#64748b" stroke-width="1.5" marker-end="url(#arrow)"/>
  <text x="400" y="126" text-anchor="middle" font-size="9" fill="#64748b">1:N</text>

  <path d="M510 188 V210 H740 V200" stroke="#64748b" stroke-width="1.5" fill="none" marker-end="url(#arrow)"/>
  <text x="620" y="205" text-anchor="middle" font-size="9" fill="#64748b">1:N sß hďu</text>

  <path d="M190 274 H230" stroke="#64748b" stroke-width="1.5" marker-end="url(#arrow)"/>
  <text x="210" y="266" text-anchor="middle" font-size="9" fill="#64748b">cĄp th»</text>

  <path d="M400 280 L620 290" stroke="#64748b" stroke-width="1.5" stroke-dasharray="4 3" marker-end="url(#arrow)"/>
  <text x="510" y="278" text-anchor="middle" font-size="9" fill="#64748b">policy theo holder_type</text>

  <rect x="40" y="400" width="880" height="90" rx="10" fill="#fff" stroke="#e2e8f0"/>
  <text x="60" y="428" font-size="12" font-weight="600" fill="#0f172a">Ghi chú</text>
  <text x="60" y="450" font-size="11" fill="#475569">" M×i user có thĂ có nhiÁu th» theo thÝi kó (periods)  chÉ th» active/expiry hăp lÇ °ăc m°ăn.</text>
  <text x="60" y="470" font-size="11" fill="#475569">" loan_policies quy Ënh sŃ sách tŃi a, sŃ ngŕy m°ăn, phˇt trĹ theo holder_type (SV, GV, khách&).</text>
</svg>
