<svg xmlns="http://www.w3.org/2000/svg" viewBox="0 0 960 480" font-family="Segoe UI, system-ui, sans-serif">
  <defs>
    <linearGradient id="bg" x1="0" y1="0" x2="1" y2="1">
      <stop offset="0%" stop-color="#ecfdf5"/>
      <stop offset="100%" stop-color="#f8fafc"/>
    </linearGradient>
    <marker id="arrow" markerWidth="8" markerHeight="8" refX="7" refY="4" orient="auto">
      <path d="M0,0 L8,4 L0,8 Z" fill="#64748b"/>
    </marker>
    <filter id="shadow" x="-4%" y="-4%" width="108%" height="108%">
      <feDropShadow dx="0" dy="2" stdDeviation="3" flood-color="#0f172a" flood-opacity="0.08"/>
    </filter>
  </defs>
  <rect width="960" height="480" fill="url(#bg)" rx="16"/>
  <text x="480" y="38" text-anchor="middle" font-size="20" font-weight="700" fill="#0f172a">M░Òn  trú sßch in</text>
  <text x="480" y="58" text-anchor="middle" font-size="12" fill="#64748b">library_cards À loans À loan_items À book_copies À loan_borrow_requests À loan_renewal_requests</text>

  <g filter="url(#shadow)">
    <rect x="60" y="100" width="180" height="100" rx="8" fill="#fff" stroke="#059669" stroke-width="2"/>
    <rect x="60" y="100" width="180" height="26" rx="8" fill="#059669"/>
    <text x="150" y="118" text-anchor="middle" font-size="12" font-weight="700" fill="#fff">library_cards</text>
    <text x="72" y="142" font-size="10" fill="#334155">id PK À user_id FK</text>
    <text x="72" y="158" font-size="10" fill="#334155">card_number</text>
    <text x="72" y="174" font-size="10" fill="#334155">workflow_status</text>
    <text x="72" y="190" font-size="10" fill="#334155">expiry_date</text>
  </g>

  <g filter="url(#shadow)">
    <rect x="340" y="90" width="200" height="120" rx="8" fill="#fff" stroke="#16a34a" stroke-width="2"/>
    <rect x="340" y="90" width="200" height="26" rx="8" fill="#16a34a"/>
    <text x="440" y="108" text-anchor="middle" font-size="12" font-weight="700" fill="#fff">loans</text>
    <text x="352" y="132" font-size="10" fill="#334155">id PK À loan_code</text>
    <text x="352" y="148" font-size="10" fill="#334155">library_card_id FK</text>
    <text x="352" y="164" font-size="10" fill="#334155">loan_type À status</text>
    <text x="352" y="180" font-size="10" fill="#334155">loan_date À due_date</text>
    <text x="352" y="196" font-size="10" fill="#334155">returned_at</text>
  </g>

  <g filter="url(#shadow)">
    <rect x="620" y="100" width="170" height="100" rx="8" fill="#fff" stroke="#16a34a" stroke-width="2"/>
    <rect x="620" y="100" width="170" height="26" rx="8" fill="#16a34a"/>
    <text x="705" y="118" text-anchor="middle" font-size="12" font-weight="700" fill="#fff">loan_items</text>
    <text x="632" y="142" font-size="10" fill="#334155">id PK À loan_id FK</text>
    <text x="632" y="158" font-size="10" fill="#334155">book_copy_id FK</text>
    <text x="632" y="174" font-size="10" fill="#334155">returned_at</text>
    <text x="632" y="190" font-size="10" fill="#334155">fine_amount_vnd</text>
  </g>

  <g filter="url(#shadow)">
    <rect x="620" y="250" width="160" height="88" rx="8" fill="#fff" stroke="#d97706"/>
    <rect x="620" y="250" width="160" height="22" rx="8" fill="#d97706"/>
    <text x="700" y="266" text-anchor="middle" font-size="11" font-weight="700" fill="#fff">book_copies</text>
    <text x="632" y="290" font-size="10" fill="#334155">id PK À book_id FK</text>
    <text x="632" y="306" font-size="10" fill="#334155">barcode À status</text>
  </g>

  <g filter="url(#shadow)">
    <rect x="60" y="280" width="200" height="100" rx="8" fill="#fff" stroke="#0284c7"/>
    <rect x="60" y="280" width="200" height="26" rx="8" fill="#0284c7"/>
    <text x="160" y="298" text-anchor="middle" font-size="11" font-weight="700" fill="#fff">loan_borrow_requests</text>
    <text x="72" y="322" font-size="10" fill="#334155">id PK À user_id FK</text>
    <text x="72" y="338" font-size="10" fill="#334155">status (pending|approved)</text>
    <text x="72" y="354" font-size="10" fill="#334155">items JSON / lines</text>
    <text x="72" y="370" font-size="10" fill="#334155">Æ tío loans khi duyÃt</text>
  </g>

  <g filter="url(#shadow)">
    <rect x="300" y="280" width="200" height="88" rx="8" fill="#fff" stroke="#0284c7"/>
    <rect x="300" y="280" width="200" height="26" rx="8" fill="#0284c7"/>
    <text x="400" y="298" text-anchor="middle" font-size="11" font-weight="700" fill="#fff">loan_renewal_requests</text>
    <text x="312" y="322" font-size="10" fill="#334155">id PK À loan_id FK</text>
    <text x="312" y="338" font-size="10" fill="#334155">requested_due_date</text>
    <text x="312" y="354" font-size="10" fill="#334155">status</text>
  </g>

  <path d="M240 150 H340" stroke="#64748b" stroke-width="1.5" marker-end="url(#arrow)"/>
  <text x="290" y="142" text-anchor="middle" font-size="9" fill="#64748b">1:N phi┐u m░Òn</text>
  <path d="M540 150 H620" stroke="#64748b" stroke-width="1.5" marker-end="url(#arrow)"/>
  <text x="580" y="142" text-anchor="middle" font-size="9" fill="#64748b">1:N d‗ng</text>
  <path d="M705 200 V250" stroke="#64748b" stroke-width="1.5" marker-end="url(#arrow)"/>
  <text x="718" y="228" font-size="9" fill="#64748b">m░Òn bún sao</text>
  <path d="M260 200 L380 280" stroke="#64748b" stroke-width="1.5" stroke-dasharray="5 3" marker-end="url(#arrow)"/>
  <text x="310" y="248" font-size="9" fill="#64748b">yÛu cºu online</text>
  <path d="M440 210 V280" stroke="#64748b" stroke-width="1.5" stroke-dasharray="5 3" marker-end="url(#arrow)"/>
  <text x="455" y="255" font-size="9" fill="#64748b">gia hín</text>

  <rect x="60" y="410" width="840" height="52" rx="10" fill="#fff" stroke="#bbf7d0"/>
  <text x="80" y="432" font-size="11" font-weight="600" fill="#14532d">Transaction:</text>
  <text x="200" y="432" font-size="11" fill="#334155">DuyÃt m░Òn / L¡p phi┐u / Trú sßch  c¡p nh¡t loans + loan_items + book_copies.status trong DB::transaction().</text>
  <text x="80" y="450" font-size="11" fill="#475569">Khßch &amp; ng░¦i ngoÓi: kh¶ng checkout v┴ nhÓ (ch╔ ═c tíi chÎ).</text>
</svg>
