<svg xmlns="http://www.w3.org/2000/svg" viewBox="0 0 960 540" font-family="Segoe UI, system-ui, sans-serif">
  <defs>
    <linearGradient id="bg" x1="0" y1="0" x2="1" y2="1">
      <stop offset="0%" stop-color="#eef2ff"/>
      <stop offset="100%" stop-color="#f8fafc"/>
    </linearGradient>
    <marker id="arrow" markerWidth="8" markerHeight="8" refX="7" refY="4" orient="auto">
      <path d="M0,0 L8,4 L0,8 Z" fill="#64748b"/>
    </marker>
    <filter id="shadow" x="-4%" y="-4%" width="108%" height="108%">
      <feDropShadow dx="0" dy="2" stdDeviation="3" flood-color="#0f172a" flood-opacity="0.08"/>
    </filter>
  </defs>
  <rect width="960" height="540" fill="url(#bg)" rx="16"/>
  <text x="480" y="38" text-anchor="middle" font-size="20" font-weight="700" fill="#0f172a">TÓi liÃu sÐ &amp; thanh toßn</text>
  <text x="480" y="58" text-anchor="middle" font-size="12" fill="#64748b">digital_assets À submissions À carts À orders À SePay À paywall</text>

  <g filter="url(#shadow)">
    <rect x="60" y="90" width="160" height="88" rx="8" fill="#fff" stroke="#4f46e5" stroke-width="2"/>
    <rect x="60" y="90" width="160" height="24" rx="8" fill="#4f46e5"/>
    <text x="140" y="106" text-anchor="middle" font-size="12" font-weight="700" fill="#fff">books</text>
    <text x="72" y="130" font-size="10" fill="#334155">resource_type=digital</text>
    <text x="72" y="146" font-size="10" fill="#334155">TLS000001&</text>
    <text x="72" y="162" font-size="10" fill="#334155">access_mode</text>
  </g>

  <g filter="url(#shadow)">
    <rect x="280" y="80" width="200" height="108" rx="8" fill="#fff" stroke="#4f46e5" stroke-width="2"/>
    <rect x="280" y="80" width="200" height="24" rx="8" fill="#4f46e5"/>
    <text x="380" y="96" text-anchor="middle" font-size="12" font-weight="700" fill="#fff">digital_assets</text>
    <text x="292" y="120" font-size="10" fill="#334155">id PK À book_id FK</text>
    <text x="292" y="136" font-size="10" fill="#334155">path (private disk)</text>
    <text x="292" y="152" font-size="10" fill="#334155">version À is_primary</text>
    <text x="292" y="168" font-size="10" fill="#334155">preview_status</text>
  </g>

  <g filter="url(#shadow)">
    <rect x="530" y="90" width="200" height="88" rx="8" fill="#fff" stroke="#7c3aed"/>
    <rect x="530" y="90" width="200" height="24" rx="8" fill="#7c3aed"/>
    <text x="630" y="106" text-anchor="middle" font-size="10" font-weight="700" fill="#fff">digital_asset_paywall_settings</text>
    <text x="542" y="130" font-size="10" fill="#334155">digital_asset_id FK</text>
    <text x="542" y="146" font-size="10" fill="#334155">price_vnd À enabled</text>
    <text x="542" y="162" font-size="10" fill="#334155">preview_page_count</text>
  </g>

  <g filter="url(#shadow)">
    <rect x="60" y="230" width="210" height="100" rx="8" fill="#fff" stroke="#db2777"/>
    <rect x="60" y="230" width="210" height="24" rx="8" fill="#db2777"/>
    <text x="165" y="246" text-anchor="middle" font-size="10" font-weight="700" fill="#fff">digital_document_submissions</text>
    <text x="72" y="270" font-size="10" fill="#334155">id PK À user_id FK</text>
    <text x="72" y="286" font-size="10" fill="#334155">status (pending|approved)</text>
    <text x="72" y="302" font-size="10" fill="#334155">storage_path À metadata</text>
    <text x="72" y="318" font-size="10" fill="#334155">Æ books sau duyÃt</text>
  </g>

  <g filter="url(#shadow)">
    <rect x="320" y="240" width="110" height="70" rx="8" fill="#fff" stroke="#0d9488"/>
    <rect x="320" y="240" width="110" height="22" rx="8" fill="#0d9488"/>
    <text x="375" y="256" text-anchor="middle" font-size="11" font-weight="700" fill="#fff">users</text>
    <text x="332" y="280" font-size="10" fill="#334155">id PK</text>
  </g>

  <g filter="url(#shadow)">
    <rect x="460" y="230" width="120" height="70" rx="8" fill="#fff" stroke="#0d9488"/>
    <rect x="460" y="230" width="120" height="22" rx="8" fill="#0d9488"/>
    <text x="520" y="246" text-anchor="middle" font-size="11" font-weight="700" fill="#fff">carts</text>
    <text x="472" y="270" font-size="10" fill="#334155">user_id FK</text>
  </g>

  <g filter="url(#shadow)">
    <rect x="610" y="240" width="120" height="54" rx="8" fill="#fff" stroke="#0d9488" stroke-dasharray="4 2"/>
    <text x="670" y="262" text-anchor="middle" font-size="10" font-weight="600" fill="#0f766e">cart_items</text>
    <text x="622" y="280" font-size="10" fill="#334155">digital_asset_id</text>
  </g>

  <g filter="url(#shadow)">
    <rect x="460" y="330" width="130" height="88" rx="8" fill="#fff" stroke="#dc2626"/>
    <rect x="460" y="330" width="130" height="22" rx="8" fill="#dc2626"/>
    <text x="525" y="346" text-anchor="middle" font-size="11" font-weight="700" fill="#fff">orders</text>
    <text x="472" y="370" font-size="10" fill="#334155">public_id (uuid)</text>
    <text x="472" y="386" font-size="10" fill="#334155">status À total_vnd</text>
    <text x="472" y="402" font-size="10" fill="#334155">user_id FK</text>
  </g>

  <g filter="url(#shadow)">
    <rect x="620" y="340" width="120" height="54" rx="8" fill="#fff" stroke="#dc2626" stroke-dasharray="4 2"/>
    <text x="680" y="362" text-anchor="middle" font-size="10" font-weight="600" fill="#b91c1c">order_items</text>
    <text x="632" y="380" font-size="10" fill="#334155">digital_asset_id</text>
  </g>

  <g filter="url(#shadow)">
    <rect x="780" y="330" width="150" height="88" rx="8" fill="#fff" stroke="#dc2626"/>
    <rect x="780" y="330" width="150" height="22" rx="8" fill="#dc2626"/>
    <text x="855" y="346" text-anchor="middle" font-size="10" font-weight="700" fill="#fff">payment_transactions</text>
    <text x="792" y="370" font-size="10" fill="#334155">order_id FK</text>
    <text x="792" y="386" font-size="10" fill="#334155">gateway (SePay)</text>
    <text x="792" y="402" font-size="10" fill="#334155">status À amount</text>
  </g>

  <g filter="url(#shadow)">
    <rect x="280" y="400" width="180" height="70" rx="8" fill="#fff" stroke="#6366f1"/>
    <rect x="280" y="400" width="180" height="22" rx="8" fill="#6366f1"/>
    <text x="370" y="416" text-anchor="middle" font-size="10" font-weight="700" fill="#fff">digital_access_sessions</text>
    <text x="292" y="440" font-size="10" fill="#334155">user_id À digital_asset_id</text>
    <text x="292" y="456" font-size="10" fill="#334155">expires_at (═c stream)</text>
  </g>

  <path d="M220 134 H280" stroke="#64748b" stroke-width="1.5" marker-end="url(#arrow)"/>
  <text x="250" y="126" font-size="9" fill="#64748b">1:N PDF</text>
  <path d="M480 134 H530" stroke="#64748b" stroke-width="1.5" marker-end="url(#arrow)"/>
  <text x="505" y="126" font-size="9" fill="#64748b">giß túi</text>
  <path d="M165 178 V230" stroke="#64748b" stroke-width="1.5" stroke-dasharray="4 3" marker-end="url(#arrow)"/>
  <path d="M270 280 H320" stroke="#64748b" stroke-width="1.5" marker-end="url(#arrow)"/>
  <path d="M430 265 H460" stroke="#64748b" stroke-width="1.5" marker-end="url(#arrow)"/>
  <path d="M580 265 H610" stroke="#64748b" stroke-width="1.5" marker-end="url(#arrow)"/>
  <path d="M525 300 V330" stroke="#64748b" stroke-width="1.5" marker-end="url(#arrow)"/>
  <path d="M590 374 H620" stroke="#64748b" stroke-width="1.5" marker-end="url(#arrow)"/>
  <path d="M590 374 H780" stroke="#64748b" stroke-width="1.5" stroke-dasharray="4 3" marker-end="url(#arrow)"/>
  <path d="M380 188 V400" stroke="#64748b" stroke-width="1.5" stroke-dasharray="4 3" marker-end="url(#arrow)"/>

  <rect x="60" y="490" width="840" height="36" rx="8" fill="#e0e7ff" stroke="#a5b4fc"/>
  <text x="480" y="512" text-anchor="middle" font-size="11" fill="#312e81">Admin upload: POST /books/digital  transaction books + digital_assets + cover (kh¶ng ├ bún ghi trÐng file)</text>
</svg>
