<svg xmlns="http://www.w3.org/2000/svg" viewBox="0 0 960 560" font-family="Segoe UI, system-ui, sans-serif">
  <defs>
    <linearGradient id="bg" x1="0" y1="0" x2="1" y2="1">
      <stop offset="0%" stop-color="#fffbeb"/>
      <stop offset="100%" stop-color="#f8fafc"/>
    </linearGradient>
    <marker id="arrow" markerWidth="8" markerHeight="8" refX="7" refY="4" orient="auto">
      <path d="M0,0 L8,4 L0,8 Z" fill="#64748b"/>
    </marker>
    <filter id="shadow" x="-4%" y="-4%" width="108%" height="108%">
      <feDropShadow dx="0" dy="2" stdDeviation="3" flood-color="#0f172a" flood-opacity="0.08"/>
    </filter>
  </defs>
  <rect width="960" height="560" fill="url(#bg)" rx="16"/>
  <text x="480" y="38" text-anchor="middle" font-size="20" font-weight="700" fill="#0f172a">Danh mÕc &amp; kho v¡t l²</text>
  <text x="480" y="58" text-anchor="middle" font-size="12" fill="#64748b">books À book_copies À classifications À warehouses À storage À authors À publishers</text>

  <g filter="url(#shadow)">
    <rect x="360" y="80" width="220" height="130" rx="8" fill="#fff" stroke="#d97706" stroke-width="2"/>
    <rect x="360" y="80" width="220" height="26" rx="8" fill="#d97706"/>
    <rect x="360" y="98" width="220" height="8" fill="#d97706"/>
    <text x="470" y="98" text-anchor="middle" font-size="13" font-weight="700" fill="#fff">books</text>
    <text x="372" y="122" font-size="10" fill="#334155">id PK À title À isbn</text>
    <text x="372" y="138" font-size="10" fill="#334155">resource_type (textbook|reference|digital)</text>
    <text x="372" y="154" font-size="10" fill="#334155">access_mode À classification_id FK</text>
    <text x="372" y="170" font-size="10" fill="#334155">warehouse_id FK À quantity</text>
    <text x="372" y="186" font-size="10" fill="#334155">cover_path À summary</text>
  </g>

  <g filter="url(#shadow)">
    <rect x="40" y="100" width="140" height="76" rx="8" fill="#fff" stroke="#ca8a04"/>
    <rect x="40" y="100" width="140" height="22" rx="8" fill="#ca8a04"/>
    <text x="110" y="116" text-anchor="middle" font-size="11" font-weight="700" fill="#fff">classifications</text>
    <text x="52" y="140" font-size="10" fill="#334155">id PK À code À name</text>
    <text x="52" y="156" font-size="10" fill="#334155">parent_id</text>
  </g>

  <g filter="url(#shadow)">
    <rect x="40" y="210" width="140" height="76" rx="8" fill="#fff" stroke="#ca8a04"/>
    <rect x="40" y="210" width="140" height="22" rx="8" fill="#ca8a04"/>
    <text x="110" y="226" text-anchor="middle" font-size="11" font-weight="700" fill="#fff">warehouses</text>
    <text x="52" y="250" font-size="10" fill="#334155">id PK À code À name</text>
    <text x="52" y="266" font-size="10" fill="#334155">location</text>
  </g>

  <g filter="url(#shadow)">
    <rect x="640" y="90" width="160" height="88" rx="8" fill="#fff" stroke="#ea580c"/>
    <rect x="640" y="90" width="160" height="22" rx="8" fill="#ea580c"/>
    <text x="720" y="106" text-anchor="middle" font-size="11" font-weight="700" fill="#fff">book_copies</text>
    <text x="652" y="130" font-size="10" fill="#334155">id PK À book_id FK</text>
    <text x="652" y="146" font-size="10" fill="#334155">barcode À status</text>
    <text x="652" y="162" font-size="10" fill="#334155">storage_slot_id</text>
  </g>

  <g filter="url(#shadow)">
    <rect x="640" y="210" width="150" height="70" rx="8" fill="#fff" stroke="#ea580c"/>
    <rect x="640" y="210" width="150" height="22" rx="8" fill="#ea580c"/>
    <text x="715" y="226" text-anchor="middle" font-size="10" font-weight="700" fill="#fff">storage_cabinets</text>
    <text x="652" y="250" font-size="10" fill="#334155">warehouse_id FK</text>
    <text x="652" y="266" font-size="10" fill="#334155">label</text>
  </g>

  <g filter="url(#shadow)">
    <rect x="810" y="210" width="120" height="70" rx="8" fill="#fff" stroke="#ea580c"/>
    <rect x="810" y="210" width="120" height="22" rx="8" fill="#ea580c"/>
    <text x="870" y="226" text-anchor="middle" font-size="10" font-weight="700" fill="#fff">storage_slots</text>
    <text x="822" y="250" font-size="10" fill="#334155">cabinet_id FK</text>
  </g>

  <g filter="url(#shadow)">
    <rect x="200" y="320" width="120" height="70" rx="8" fill="#fff" stroke="#9333ea"/>
    <rect x="200" y="320" width="120" height="22" rx="8" fill="#9333ea"/>
    <text x="260" y="336" text-anchor="middle" font-size="11" font-weight="700" fill="#fff">authors</text>
    <text x="212" y="360" font-size="10" fill="#334155">id PK À name</text>
  </g>

  <g filter="url(#shadow)">
    <rect x="360" y="320" width="120" height="54" rx="8" fill="#fff" stroke="#9333ea" stroke-dasharray="4 2"/>
    <text x="420" y="342" text-anchor="middle" font-size="10" font-weight="600" fill="#7e22ce">book_authors</text>
    <text x="372" y="360" font-size="10" fill="#334155">book_id À author_id</text>
  </g>

  <g filter="url(#shadow)">
    <rect x="520" y="320" width="120" height="70" rx="8" fill="#fff" stroke="#9333ea"/>
    <rect x="520" y="320" width="120" height="22" rx="8" fill="#9333ea"/>
    <text x="580" y="336" text-anchor="middle" font-size="10" font-weight="700" fill="#fff">publishers</text>
    <text x="532" y="360" font-size="10" fill="#334155">id PK À name</text>
  </g>

  <g filter="url(#shadow)">
    <rect x="680" y="320" width="130" height="54" rx="8" fill="#fff" stroke="#9333ea" stroke-dasharray="4 2"/>
    <text x="745" y="342" text-anchor="middle" font-size="10" font-weight="600" fill="#7e22ce">book_publishers</text>
    <text x="692" y="360" font-size="10" fill="#334155">book_id À publisher_id</text>
  </g>

  <g filter="url(#shadow)">
    <rect x="360" y="420" width="180" height="70" rx="8" fill="#fff" stroke="#0d9488"/>
    <rect x="360" y="420" width="180" height="22" rx="8" fill="#0d9488"/>
    <text x="450" y="436" text-anchor="middle" font-size="11" font-weight="700" fill="#fff">thesis_metadata</text>
    <text x="372" y="460" font-size="10" fill="#334155">book_id FK (1:1 digital)</text>
    <text x="372" y="476" font-size="10" fill="#334155">degree, defense_year</text>
  </g>

  <path d="M180 136 H360" stroke="#64748b" stroke-width="1.5" marker-end="url(#arrow)"/>
  <text x="270" y="128" text-anchor="middle" font-size="9" fill="#64748b">N:1</text>
  <path d="M180 246 H360" stroke="#64748b" stroke-width="1.5" marker-end="url(#arrow)"/>
  <path d="M580 145 H640" stroke="#64748b" stroke-width="1.5" marker-end="url(#arrow)"/>
  <text x="610" y="137" text-anchor="middle" font-size="9" fill="#64748b">1:N bún sao</text>
  <path d="M720 178 V210" stroke="#64748b" stroke-width="1.5" marker-end="url(#arrow)"/>
  <path d="M790 245 H810" stroke="#64748b" stroke-width="1.5" marker-end="url(#arrow)"/>
  <path d="M320 355 H360" stroke="#64748b" stroke-width="1.5" marker-end="url(#arrow)"/>
  <path d="M480 355 H520" stroke="#64748b" stroke-width="1.5" marker-end="url(#arrow)"/>
  <path d="M450 210 V320" stroke="#64748b" stroke-width="1.5" marker-end="url(#arrow)"/>
  <path d="M450 210 V420" stroke="#64748b" stroke-width="1.5" stroke-dasharray="4 3" marker-end="url(#arrow)"/>
</svg>
