<svg xmlns="http://www.w3.org/2000/svg" viewBox="0 0 800 300" font-family="Segoe UI, Arial, sans-serif">
  <rect width="800" height="300" fill="#f8fafc" rx="12"/>
  <text x="400" y="32" text-anchor="middle" font-size="18" font-weight="700" fill="#0f172a">Vai trò hÇ thÑng</text>
  <rect x="40" y="60" width="160" height="200" rx="10" fill="#dbeafe" stroke="#2563eb"/>
  <text x="120" y="90" text-anchor="middle" font-weight="600" fill="#1e40af">Ùc gi£</text>
  <text x="120" y="115" text-anchor="middle" font-size="11" fill="#334155">Tra céu sách</text>
  <text x="120" y="135" text-anchor="middle" font-size="11" fill="#334155">MḞãn / tr£</text>
  <text x="120" y="155" text-anchor="middle" font-size="11" fill="#334155">ThṠ thḞ viÇn</text>
  <text x="120" y="175" text-anchor="middle" font-size="11" fill="#334155">Tài liÇu sÑ</text>
  <text x="120" y="195" text-anchor="middle" font-size="11" fill="#334155">NÙp Ó án</text>
  <rect x="220" y="60" width="160" height="200" rx="10" fill="#fef3c7" stroke="#d97706"/>
  <text x="300" y="90" text-anchor="middle" font-weight="600" fill="#92400e">Thç thḞ</text>
  <text x="300" y="120" text-anchor="middle" font-size="11" fill="#334155">L­p phiṡu mḞãn/tr£</text>
  <text x="300" y="140" text-anchor="middle" font-size="11" fill="#334155">DuyÇt thṠ / mḞãn</text>
  <text x="300" y="160" text-anchor="middle" font-size="11" fill="#334155">Qu£n lý kho</text>
  <rect x="400" y="60" width="160" height="200" rx="10" fill="#dcfce7" stroke="#16a34a"/>
  <text x="480" y="90" text-anchor="middle" font-weight="600" fill="#166534">Admin</text>
  <text x="480" y="120" text-anchor="middle" font-size="11" fill="#334155">User / RBAC</text>
  <text x="480" y="140" text-anchor="middle" font-size="11" fill="#334155">Sách &amp; tài liÇu sÑ</text>
  <text x="480" y="160" text-anchor="middle" font-size="11" fill="#334155">Cċu hình thḞ viÇn</text>
  <rect x="580" y="60" width="180" height="200" rx="10" fill="#ede9fe" stroke="#7c3aed"/>
  <text x="670" y="90" text-anchor="middle" font-weight="600" fill="#5b21b6">Super Admin</text>
  <text x="670" y="120" text-anchor="middle" font-size="11" fill="#334155">Toàn quyÁn</text>
  <text x="670" y="140" text-anchor="middle" font-size="11" fill="#334155">Roles / Permissions</text>
  <text x="670" y="160" text-anchor="middle" font-size="11" fill="#334155">Deploy / hÇ thÑng</text>
</svg>
