<?xml version="1.0" encoding="UTF-8"?>
<svg xmlns="http://www.w3.org/2000/svg" viewBox="0 0 800 300" font-family="Segoe UI, system-ui, sans-serif">
  <rect width="800" height="300" fill="#f8fafc" rx="12"/>
  <text x="400" y="32" text-anchor="middle" font-size="18" font-weight="700" fill="#0f172a">Vai trò hệ thống</text>
  <rect x="40" y="60" width="160" height="200" rx="10" fill="#dbeafe" stroke="#2563eb"/>
  <text x="120" y="90" text-anchor="middle" font-weight="600" fill="#1e40af">Độc giả</text>
  <text x="120" y="115" text-anchor="middle" font-size="11" fill="#334155">Tra cứu sách</text>
  <text x="120" y="135" text-anchor="middle" font-size="11" fill="#334155">Mượn / trả</text>
  <text x="120" y="155" text-anchor="middle" font-size="11" fill="#334155">Thẻ thư viện</text>
  <text x="120" y="175" text-anchor="middle" font-size="11" fill="#334155">Tài liệu số</text>
  <text x="120" y="195" text-anchor="middle" font-size="11" fill="#334155">Nộp đồ án</text>
  <rect x="220" y="60" width="160" height="200" rx="10" fill="#fef3c7" stroke="#d97706"/>
  <text x="300" y="90" text-anchor="middle" font-weight="600" fill="#92400e">Thủ thư</text>
  <text x="300" y="120" text-anchor="middle" font-size="11" fill="#334155">Lập phiếu mượn/trả</text>
  <text x="300" y="140" text-anchor="middle" font-size="11" fill="#334155">Duyệt thẻ / mượn</text>
  <text x="300" y="160" text-anchor="middle" font-size="11" fill="#334155">Quản lý kho</text>
  <rect x="400" y="60" width="160" height="200" rx="10" fill="#dcfce7" stroke="#16a34a"/>
  <text x="480" y="90" text-anchor="middle" font-weight="600" fill="#166534">Admin</text>
  <text x="480" y="120" text-anchor="middle" font-size="11" fill="#334155">User / RBAC</text>
  <text x="480" y="140" text-anchor="middle" font-size="11" fill="#334155">Sách &amp; tài liệu số</text>
  <text x="480" y="160" text-anchor="middle" font-size="11" fill="#334155">Cấu hình thư viện</text>
  <rect x="580" y="60" width="180" height="200" rx="10" fill="#ede9fe" stroke="#7c3aed"/>
  <text x="670" y="90" text-anchor="middle" font-weight="600" fill="#5b21b6">Super Admin</text>
  <text x="670" y="120" text-anchor="middle" font-size="11" fill="#334155">Toàn quyền</text>
  <text x="670" y="140" text-anchor="middle" font-size="11" fill="#334155">Roles / Permissions</text>
  <text x="670" y="160" text-anchor="middle" font-size="11" fill="#334155">Deploy / hệ thống</text>
</svg>